<svg preserveAspectRatio="none" overflow="visible" style="display: block;" width="381.11" height="181.08" viewBox="0 0 381.11 181.08" fill="none" xmlns="http://www.w3.org/2000/svg">
<g id="KBF_LOGO-H 1">
<path id="Vector" d="M163.26 43.01V54.48L173.8 43.01H181.2L170.67 53.94L182.22 70.69H174.78L166.66 58.24L163.26 61.77V70.69H157.33V43.01H163.26Z" fill="#221F22"/>
<path id="Vector_2" d="M184.34 51.21C184.899 49.5129 185.782 47.9405 186.94 46.58C188.087 45.2502 189.515 44.1914 191.12 43.48C192.886 42.7341 194.783 42.3498 196.7 42.3498C198.617 42.3498 200.514 42.7341 202.28 43.48C203.875 44.1946 205.292 45.2533 206.43 46.58C207.573 47.9458 208.446 49.5172 209 51.21C209.613 53.0644 209.917 55.007 209.9 56.96C209.916 58.8802 209.612 60.7897 209 62.61C208.431 64.2805 207.545 65.8255 206.39 67.16C205.24 68.4484 203.824 69.4719 202.24 70.16C200.471 70.8928 198.575 71.27 196.66 71.27C194.745 71.27 192.849 70.8928 191.08 70.16C189.486 69.474 188.06 68.4505 186.9 67.16C185.745 65.8274 184.862 64.2817 184.3 62.61C183.68 60.7916 183.372 58.8812 183.39 56.96C183.371 55.006 183.679 53.0626 184.3 51.21M189.72 60.36C189.957 61.4274 190.384 62.4435 190.98 63.36C191.557 64.2374 192.335 64.9643 193.25 65.48C194.308 65.9999 195.471 66.2702 196.65 66.2702C197.829 66.2702 198.992 65.9999 200.05 65.48C200.962 64.964 201.737 64.237 202.31 63.36C202.905 62.4418 203.335 61.4265 203.58 60.36C203.849 59.2599 203.99 58.1324 204 57C204.003 55.8157 203.872 54.635 203.61 53.48C203.359 52.4154 202.93 51.4011 202.34 50.48C201.77 49.5978 200.994 48.867 200.08 48.35C199.022 47.8301 197.859 47.5598 196.68 47.5598C195.501 47.5598 194.338 47.8301 193.28 48.35C192.369 48.8399 191.588 49.539 191 50.39C190.41 51.3095 189.983 52.3246 189.74 53.39C189.47 54.5437 189.336 55.7251 189.34 56.91C189.336 58.0553 189.47 59.197 189.74 60.31" fill="#221F22"/>
<path id="Vector_3" d="M231.28 50.39C230.942 49.8121 230.509 49.295 230 48.86C228.901 47.9649 227.528 47.4742 226.11 47.47C224.927 47.4311 223.755 47.7036 222.71 48.26C221.793 48.7766 221.014 49.5074 220.44 50.39C219.85 51.3095 219.423 52.3246 219.18 53.39C218.91 54.5437 218.776 55.7251 218.78 56.91C218.776 58.0553 218.91 59.197 219.18 60.31C219.417 61.3774 219.844 62.3935 220.44 63.31C221.017 64.1874 221.795 64.9143 222.71 65.43C223.756 65.9817 224.928 66.2538 226.11 66.22C226.9 66.2632 227.691 66.1325 228.425 65.8371C229.159 65.5416 229.82 65.0886 230.36 64.51C231.424 63.2332 232.063 61.6569 232.19 60H237.93C237.808 61.6182 237.412 63.204 236.76 64.69C236.168 66.0293 235.319 67.239 234.26 68.25C233.223 69.2435 231.99 70.0098 230.64 70.5C229.176 71.0332 227.628 71.2975 226.07 71.28C224.155 71.3107 222.256 70.9323 220.5 70.17C218.906 69.484 217.48 68.4605 216.32 67.17C215.165 65.8374 214.282 64.2917 213.72 62.62C213.1 60.8016 212.792 58.8912 212.81 56.97C212.791 55.016 213.099 53.0726 213.72 51.22C214.279 49.5229 215.162 47.9505 216.32 46.59C217.467 45.2602 218.895 44.2014 220.5 43.49C223.598 42.1666 227.069 41.9998 230.28 43.02C231.568 43.4436 232.77 44.0938 233.83 44.94C234.89 45.7998 235.77 46.86 236.42 48.06C237.122 49.3824 237.557 50.8298 237.7 52.32H232C231.902 51.6414 231.671 50.9888 231.32 50.4" fill="#221F22"/>
<path id="Vector_4" d="M247.9 43.01V53.63H258.81V43.01H264.74V70.69H258.81V58.75H247.9V70.69H241.97V43.01H247.9Z" fill="#221F22"/>
<path id="Vector_5" d="M275.88 43.01H269.95V70.69H275.88V43.01Z" fill="#221F22"/>
<path id="Vector_6" d="M157.33 116.43H171.96V119.63H161.04V125.18H170.63V128.21H161.04V137.62H157.33V116.43Z" fill="#221F22"/>
<path id="Vector_7" d="M184 115.92C185.468 115.898 186.923 116.202 188.26 116.81C189.479 117.383 190.566 118.203 191.45 119.22C192.339 120.256 193.018 121.455 193.45 122.75C194.383 125.53 194.383 128.54 193.45 131.32C193.018 132.618 192.339 133.82 191.45 134.86C190.567 135.87 189.48 136.682 188.26 137.24C186.915 137.821 185.465 138.12 184 138.12C182.535 138.12 181.085 137.821 179.74 137.24C178.52 136.682 177.433 135.87 176.55 134.86C175.661 133.82 174.982 132.618 174.55 131.32C173.617 128.54 173.617 125.53 174.55 122.75C174.982 121.455 175.661 120.256 176.55 119.22C177.434 118.203 178.521 117.383 179.74 116.81C181.077 116.202 182.532 115.898 184 115.92ZM184 118.92C182.985 118.896 181.98 119.13 181.08 119.6C180.277 120.043 179.592 120.67 179.08 121.43C178.548 122.223 178.159 123.103 177.93 124.03C177.683 125.011 177.558 126.019 177.56 127.03C177.56 128.041 177.684 129.049 177.93 130.03C178.161 130.956 178.55 131.836 179.08 132.63C179.59 133.39 180.276 134.014 181.08 134.45C181.988 134.897 182.987 135.13 184 135.13C185.013 135.13 186.012 134.897 186.92 134.45C187.721 134.01 188.407 133.387 188.92 132.63C189.425 131.82 189.79 130.931 190 130C190.251 129.02 190.375 128.012 190.37 127C190.377 125.988 190.252 124.98 190 124C189.77 123.075 189.385 122.196 188.86 121.4C188.345 120.643 187.66 120.016 186.86 119.57C185.968 119.148 184.986 118.952 184 119" fill="#221F22"/>
<path id="Vector_8" d="M197.24 116.43H201V128.77C201 129.49 201 130.21 201.11 130.94C201.16 131.641 201.362 132.324 201.7 132.94C202.048 133.55 202.561 134.049 203.18 134.38C204.067 134.756 205.021 134.95 205.985 134.95C206.949 134.95 207.903 134.756 208.79 134.38C209.412 134.049 209.928 133.55 210.28 132.94C210.615 132.322 210.816 131.641 210.87 130.94C210.94 130.21 210.97 129.49 210.97 128.77V116.43H214.68V130C214.706 131.216 214.495 132.425 214.06 133.56C213.669 134.529 213.064 135.398 212.29 136.1C211.496 136.8 210.562 137.321 209.55 137.63C207.224 138.297 204.756 138.297 202.43 137.63C201.415 137.322 200.477 136.8 199.68 136.1C198.906 135.4 198.303 134.531 197.92 133.56C197.477 132.427 197.263 131.217 197.29 130L197.24 116.43Z" fill="#221F22"/>
<path id="Vector_9" d="M218.76 116.43H222.67L232.35 132.04H232.41V116.43H235.94V137.62H232.02L222.38 122.04H222.29V137.62H218.76V116.43Z" fill="#221F22"/>
<path id="Vector_10" d="M240.33 116.43H249.11C250.557 116.396 251.994 116.679 253.32 117.26C254.459 117.771 255.457 118.55 256.23 119.53C257.003 120.534 257.574 121.678 257.91 122.9C258.644 125.601 258.644 128.449 257.91 131.15C257.571 132.371 257.001 133.515 256.23 134.52C255.454 135.497 254.457 136.275 253.32 136.79C251.994 137.371 250.557 137.654 249.11 137.62H240.33V116.43ZM244 134.59H247.65C248.857 134.632 250.06 134.435 251.19 134.01C252.041 133.676 252.79 133.124 253.36 132.41C253.895 131.698 254.26 130.874 254.43 130C254.808 128.018 254.808 125.982 254.43 124C254.26 123.129 253.894 122.308 253.36 121.6C252.79 120.886 252.041 120.334 251.19 120C250.06 119.575 248.857 119.378 247.65 119.42H244V134.59Z" fill="#221F22"/>
<path id="Vector_11" d="M267.42 116.43H271.36L279.52 137.62H275.52L273.52 132.01H265.1L263.1 137.62H259.27L267.42 116.43ZM266.11 129.19H272.58L269.41 120.08H269.32L266.11 129.19Z" fill="#221F22"/>
<path id="Vector_12" d="M276.8 116.43H293.95V119.63H287.21V137.62H283.5V119.63H276.8V116.43Z" fill="#221F22"/>
<path id="Vector_13" d="M300.12 116.43H296.41V137.62H300.12V116.43Z" fill="#221F22"/>
<path id="Vector_14" d="M313.68 115.92C315.148 115.898 316.603 116.202 317.94 116.81C319.156 117.383 320.24 118.204 321.12 119.22C322.008 120.257 322.687 121.455 323.12 122.75C324.053 125.53 324.053 128.54 323.12 131.32C322.687 132.618 322.008 133.82 321.12 134.86C320.241 135.87 319.157 136.681 317.94 137.24C316.595 137.821 315.145 138.12 313.68 138.12C312.215 138.12 310.765 137.821 309.42 137.24C308.199 136.684 307.111 135.873 306.23 134.86C305.341 133.82 304.662 132.618 304.23 131.32C303.297 128.54 303.297 125.53 304.23 122.75C304.662 121.455 305.341 120.256 306.23 119.22C307.112 118.201 308.199 117.38 309.42 116.81C310.756 116.201 312.212 115.897 313.68 115.92ZM313.68 118.92C312.661 118.894 311.653 119.128 310.75 119.6C309.949 120.045 309.264 120.672 308.75 121.43C308.225 122.226 307.84 123.105 307.61 124.03C307.358 125.01 307.233 126.018 307.24 127.03C307.235 128.042 307.359 129.05 307.61 130.03C307.841 130.955 308.227 131.833 308.75 132.63C309.262 133.388 309.948 134.012 310.75 134.45C311.66 134.897 312.661 135.13 313.675 135.13C314.689 135.13 315.69 134.897 316.6 134.45C317.404 134.014 318.09 133.39 318.6 132.63C319.13 131.836 319.519 130.956 319.75 130.03C319.996 129.049 320.12 128.041 320.12 127.03C320.122 126.019 319.997 125.011 319.75 124.03C319.521 123.103 319.132 122.223 318.6 121.43C318.088 120.67 317.403 120.043 316.6 119.6C315.7 119.13 314.695 118.896 313.68 118.92Z" fill="#221F22"/>
<path id="Vector_15" d="M327.06 116.43H330.98L340.65 132.04H340.71V116.43H344.24V137.62H340.32L330.68 122.04H330.59V137.62H327.06V116.43Z" fill="#221F22"/>
<path id="Vector_16" d="M170 79.72C171.182 79.7109 172.362 79.8282 173.52 80.07C174.493 80.2667 175.417 80.6542 176.24 81.21C177.001 81.7471 177.608 82.4747 178 83.32C178.446 84.3473 178.657 85.4608 178.62 86.58C178.669 87.8092 178.349 89.0249 177.7 90.07C177.017 91.0574 176.086 91.8472 175 92.36C176.507 92.7447 177.827 93.6564 178.72 94.93C179.567 96.2529 179.995 97.8001 179.95 99.37C179.979 100.626 179.708 101.87 179.16 103C178.652 103.989 177.919 104.845 177.02 105.5C176.095 106.158 175.058 106.643 173.96 106.93C172.809 107.243 171.622 107.401 170.43 107.4H157.33V79.72H170ZM169.25 90.92C170.178 90.9579 171.092 90.6871 171.85 90.15C172.203 89.8379 172.477 89.4472 172.651 89.0094C172.825 88.5716 172.893 88.0991 172.85 87.63C172.874 87.0797 172.757 86.5323 172.51 86.04C172.308 85.6301 171.996 85.284 171.61 85.04C171.205 84.801 170.762 84.6351 170.3 84.55C169.798 84.4608 169.29 84.4173 168.78 84.42H163.22V90.89L169.25 90.92ZM169.59 102.67C170.148 102.672 170.705 102.612 171.25 102.49C171.749 102.388 172.225 102.191 172.65 101.91C173.072 101.635 173.416 101.256 173.65 100.81C173.91 100.243 174.03 99.6226 174 99C174.049 98.4436 173.969 97.8835 173.766 97.3632C173.563 96.8428 173.243 96.3763 172.83 96C171.93 95.3542 170.837 95.0333 169.73 95.09H163.27V102.69L169.59 102.67Z" fill="#221F22"/>
<path id="Vector_17" d="M189.85 79.72H183.92V107.4H189.85V79.72Z" fill="#221F22"/>
<path id="Vector_18" d="M215.23 79.72V84.84H200.99V90.77H214.06V95.5H200.99V102.28H215.53V107.4H195.06V79.72H215.23Z" fill="#221F22"/>
<path id="Vector_19" d="M225.43 79.72L236.68 98.29H236.76V79.72H242.31V107.4H236.38L225.16 88.87H225.09V107.4H219.53V79.72H225.43Z" fill="#221F22"/>
<path id="Vector_20" d="M253.41 79.72L264.67 98.29H264.74V79.72H270.29V107.4H264.36L253.15 88.87H253.07V107.4H247.52V79.72H253.41Z" fill="#221F22"/>
<path id="Vector_21" d="M289 79.72L299 107.4H292.85L290.85 101.23H280.75L278.64 107.4H272.64L282.84 79.72H289ZM289.34 96.72L285.94 86.56H285.86L282.3 96.7L289.34 96.72Z" fill="#221F22"/>
<path id="Vector_22" d="M307.3 79.72V102.28H320.45V107.4H301.37V79.72H307.3Z" fill="#221F22"/>
<path id="Vector_23" d="M343.94 79.72V84.84H329.7V90.77H342.76V95.5H329.7V102.28H344.24V107.4H323.77V79.72H343.94Z" fill="#221F22"/>
<path id="Vector_24" d="M86.4 138.56C86.5138 138.671 86.6663 138.732 86.825 138.732C86.9837 138.732 87.1362 138.671 87.25 138.56L96.83 129.2C96.8881 129.145 96.9341 129.078 96.9651 129.004C96.9961 128.93 97.0114 128.85 97.01 128.77V112.77L113.12 127.83C113.239 127.935 113.392 127.992 113.55 127.99C113.657 127.992 113.764 127.968 113.86 127.92L122.58 123.17C122.667 123.125 122.741 123.06 122.797 122.98C122.853 122.899 122.888 122.807 122.9 122.71V109.71C122.9 109.628 122.884 109.546 122.851 109.47C122.818 109.394 122.77 109.326 122.71 109.27L101.59 89.47L136.59 56.83C136.654 56.7758 136.704 56.7083 136.739 56.6322C136.774 56.5562 136.791 56.4735 136.79 56.39V43.84C136.789 43.7297 136.766 43.6207 136.722 43.5193C136.679 43.4179 136.616 43.326 136.537 43.2489C136.458 43.1719 136.365 43.1111 136.262 43.0701C136.16 43.0291 136.05 43.0087 135.94 43.01H122.34C122.18 43.008 122.025 43.0691 121.91 43.18L86.83 75.85L51.77 43.18C51.6545 43.0691 51.5001 43.008 51.34 43.01H37.89C37.6248 43.01 37.3704 43.1154 37.1829 43.3029C36.9954 43.4904 36.89 43.7448 36.89 44.01V56.55C36.8891 56.6335 36.9065 56.7162 36.9411 56.7922C36.9756 56.8683 37.0265 56.9358 37.09 56.99L72.09 89.62L51 109.33C50.9398 109.386 50.8919 109.454 50.8592 109.53C50.8265 109.606 50.8097 109.688 50.81 109.77V122.49C50.8104 122.654 50.8552 122.815 50.9397 122.956C51.0242 123.097 51.1452 123.212 51.29 123.29L59.82 127.93C59.9358 127.993 60.0685 128.019 60.1995 128.003C60.3305 127.986 60.4531 127.93 60.55 127.84L76.69 112.84V128.84C76.6918 129.001 76.7564 129.156 76.87 129.27L86.4 138.56ZM38.12 56.29V45.06L79 83.18L73 88.77L38.12 56.29ZM52 110L80.33 83.62C80.3983 83.5688 80.4538 83.5023 80.4919 83.426C80.5301 83.3496 80.55 83.2654 80.55 83.18C80.55 83.0946 80.5301 83.0104 80.4919 82.934C80.4538 82.8577 80.3983 82.7912 80.33 82.74L39.05 44.23H51.05L86.4 77.13C86.5155 77.2412 86.6696 77.3033 86.83 77.3033C86.9904 77.3033 87.1445 77.2412 87.26 77.13L122.58 44.23H134.58L52 121.25V110ZM86.19 136.62L77.88 128.49V111.63L86.19 103.88V136.62ZM95.75 128.49L87.43 136.62V103.88L95.75 111.64V128.49ZM121.66 110V121.22L94.61 96L100.69 90.33L121.66 110ZM135.53 56.16L93.28 95.6C93.1612 95.7159 93.0929 95.874 93.09 96.04C93.0897 96.1225 93.1065 96.2041 93.1392 96.2798C93.1719 96.3555 93.2198 96.4237 93.28 96.48L121.28 122.55L113.69 126.67L87.26 102C87.1434 101.891 86.9897 101.83 86.83 101.83C86.6707 101.832 86.5177 101.893 86.4 102L60 126.65L52.44 122.54L135.53 45V56.16Z" fill="#221F22"/>
</g>
</svg>
